<?xml version="1.0" encoding="UTF-8" standalone="no"?>
<!DOCTYPE svg PUBLIC "-//W3C//DTD SVG 20010904//EN"
              "http://www.w3.org/TR/2001/REC-SVG-20010904/DTD/svg10.dtd">

<svg xmlns="http://www.w3.org/2000/svg"
     width="8.95556in" height="6.65556in"
     viewBox="0 0 806 599">
  <path id="Selection"
        fill="none" stroke="black" stroke-width="1"
        d="M 129.00,75.00
           C 138.53,77.74 156.30,69.99 166.00,67.28
             183.38,62.43 198.96,58.89 217.00,57.04
             217.00,57.04 226.00,57.04 226.00,57.04
             226.00,57.04 234.00,56.04 234.00,56.04
             243.69,55.66 253.19,58.67 262.00,62.43
             267.85,64.92 272.88,68.69 282.00,68.00
             283.81,64.69 286.54,65.01 291.00,65.00
             291.00,65.00 331.00,65.00 331.00,65.00
             331.00,65.00 478.00,65.00 478.00,65.00
             478.00,65.00 515.00,65.00 515.00,65.00
             515.00,65.00 522.62,63.62 523.00,68.00
             523.20,68.05 523.36,68.21 523.56,68.25
             541.57,71.66 565.12,54.31 578.00,57.04
             577.62,57.12 586.00,58.04 586.00,58.04
             586.00,58.04 595.00,58.04 595.00,58.04
             616.74,60.24 634.35,64.53 655.00,71.33
             663.26,74.05 672.88,74.85 679.99,79.55
             682.00,80.88 683.70,82.28 685.21,84.17
             687.42,86.92 689.09,90.88 690.87,94.00
             690.87,94.00 707.33,119.61 707.33,119.61
             711.91,123.96 719.38,124.28 723.01,129.21
             726.30,133.67 733.28,155.55 735.34,162.00
             735.34,162.00 752.08,214.00 752.08,214.00
             752.08,214.00 754.75,229.00 754.75,229.00
             754.75,229.00 759.97,245.00 759.97,245.00
             759.97,245.00 767.51,271.00 767.51,271.00
             778.44,311.05 787.74,351.83 793.29,393.00
             793.29,393.00 794.96,402.00 794.96,402.00
             794.96,402.00 794.96,411.00 794.96,411.00
             794.96,411.00 797.04,437.00 797.04,437.00
             797.04,437.00 798.00,448.00 798.00,448.00
             798.00,448.00 798.00,462.00 798.00,462.00
             798.00,462.00 798.95,475.00 798.95,475.00
             798.95,475.00 798.95,489.00 798.95,489.00
             798.95,489.00 798.00,499.00 798.00,499.00
             798.00,499.00 798.00,503.00 798.00,503.00
             798.00,503.00 797.09,513.00 797.09,513.00
             794.99,541.72 786.84,565.35 761.00,581.19
             752.57,586.36 748.65,588.26 739.00,590.42
             731.30,592.15 716.20,592.82 709.00,589.73
             701.44,586.48 689.92,574.99 684.00,569.00
             669.71,554.54 652.71,528.96 642.69,511.00
             642.69,511.00 629.86,488.00 629.86,488.00
             629.86,488.00 617.42,461.00 617.42,461.00
             613.81,452.72 610.63,444.09 603.00,438.64
             596.62,434.08 579.32,432.79 579.00,433.00
             578.68,433.21 417.81,433.13 418.00,433.00
             418.19,432.88 398.17,433.13 398.17,433.13
             398.17,433.13 383.00,433.00 383.00,433.00
             382.78,433.22 223.74,433.26 224.00,433.00
             216.16,433.01 207.71,434.26 201.13,438.91
             192.29,445.17 189.85,454.78 185.69,464.00
             185.69,464.00 177.75,481.00 177.75,481.00
             163.53,509.64 143.97,543.82 122.03,567.00
             115.29,574.13 103.29,586.86 94.00,589.78
             65.13,598.86 30.91,579.47 17.32,554.00
             12.52,545.00 8.19,528.22 7.04,518.00
             7.04,518.00 7.04,508.00 7.04,508.00
             7.04,508.00 6.00,496.00 6.00,496.00
             6.00,496.00 6.00,456.00 6.00,456.00
             6.00,456.00 7.00,439.00 7.00,439.00
             7.00,439.00 11.29,389.00 11.29,389.00
             16.00,354.03 27.69,303.13 37.43,269.00
             37.43,269.00 49.27,230.04 49.27,230.04
             49.27,230.04 51.29,218.00 51.29,218.00
             51.29,218.00 55.29,203.00 55.29,203.00
             55.29,203.00 61.33,185.00 61.33,185.00
             61.33,185.00 71.78,154.00 71.78,154.00
             73.94,148.03 77.58,135.95 80.41,131.02
             85.07,122.91 91.78,125.42 97.62,118.89
             98.57,118.01 120.43,83.70 117.95,86.00
             121.43,80.82 125.18,79.39 129.00,75.00 Z
           M 740.00,133.38M 211.00,41.22
           C 211.00,41.22 211.04,36.65 211.04,36.65
             211.04,36.65 208.78,31.09 208.78,31.09
             208.78,31.09 206.87,25.35 206.83,25.35
             206.78,25.35 202.39,18.17 202.39,18.26
             202.39,18.35 195.70,10.78 195.70,11.04
             195.70,11.30 190.00,7.00 190.00,7.00
             190.00,7.00 183.00,2.50 183.00,2.50
             183.00,2.50 175.75,0.00 175.75,0.00
             175.75,0.00 170.00,0.00 170.00,0.00
             170.00,0.00 167.12,0.00 166.88,0.00
             166.62,0.00 162.75,1.38 162.62,1.25
             162.50,1.12 160.00,1.62 160.00,1.75
             160.00,1.88 157.69,2.56 157.56,2.75
             157.44,2.94 155.88,3.06 155.69,3.56
             155.50,4.06 151.38,6.94 151.44,7.00
             151.50,7.06 135.56,59.50 135.50,59.50
             135.44,59.50 135.31,61.50 135.31,61.44
             135.31,61.38 135.69,62.56 135.69,62.50
             135.69,62.44 136.19,62.94 136.50,63.12
             136.81,63.31 137.88,63.56 138.00,63.62
             138.12,63.69 140.00,62.69 140.00,62.75
             140.00,62.81 150.62,58.44 150.62,58.56
             150.62,58.69 162.81,53.69 162.88,53.75
             162.94,53.81 175.00,50.43 174.96,50.48
             174.91,50.52 189.65,47.04 190.00,47.04
             190.35,47.04 197.43,45.39 198.13,45.26
             198.83,45.13 210.00,42.96 210.00,42.87M 677.45,60.00
           C 677.45,60.00 675.09,53.27 675.09,51.64
             675.09,50.00 668.18,30.00 668.18,30.00
             668.18,30.00 661.82,6.18 662.00,6.18
             662.18,6.18 660.00,3.82 660.00,3.82
             660.00,3.82 650.00,0.00 650.00,0.00
             650.00,0.00 644.91,-1.27 644.55,-1.45
             644.18,-1.64 640.00,-2.18 640.00,-1.82
             640.00,-1.45 631.64,-2.91 631.64,-1.45
             631.64,0.00 627.82,1.82 626.73,2.18
             625.64,2.55 620.00,4.91 620.00,5.64
             620.00,6.36 616.91,7.64 616.91,7.82
             616.91,8.00 612.00,12.18 612.18,12.55
             612.36,12.91 606.55,21.64 606.00,22.18
             605.45,22.73 600.00,30.00 600.00,30.00
             600.00,30.00 600.00,40.00 600.00,40.00
             600.00,40.00 600.00,43.09 600.00,43.09
             600.00,43.09 616.00,46.36 616.00,46.36
             616.00,46.36 632.91,50.00 632.73,50.00
             632.55,50.00 644.73,52.73 644.73,52.73
             644.73,52.73 660.00,57.45 660.00,57.45
             660.00,57.45 667.64,60.00 667.64,60.00
             667.64,60.00 674.91,63.64 674.55,63.82
             674.18,64.00 680.00,64.00 680.00,64.00
             680.00,64.00 680.00,61.82 680.00,61.82M 235.91,433.44
           C 235.91,433.44 237.73,447.53 240.14,447.06
             243.52,447.47 245.16,446.66 266.28,443.47
             266.44,443.56 291.75,440.84 291.75,440.84
             291.75,440.84 301.75,437.97 301.75,438.00
             301.75,438.03 302.09,433.41 302.09,433.41
             302.09,433.41 294.40,433.36 294.40,433.33
             294.40,433.31 236.53,433.41 236.53,433.41M 187.64,484.55
           C 187.64,484.54 185.16,484.95 182.51,484.28
             179.11,483.23 180.52,477.70 180.52,477.70
             180.52,477.70 189.48,456.55 189.48,456.55
             189.48,456.55 193.17,445.59 201.23,439.08
             209.28,432.57 222.64,432.97 222.64,432.97
             222.64,432.97 232.53,433.56 232.53,433.56
             232.53,433.56 234.22,440.41 234.22,440.44
             234.22,440.47 233.66,446.38 233.66,446.41
             233.66,446.44 230.00,447.35 230.00,447.35
             230.00,447.35 216.39,449.57 206.04,458.96
             206.04,458.96 188.13,484.39 188.13,484.34M 503.04,435.91
           C 503.04,435.91 512.96,440.00 512.96,440.00
             512.96,440.00 534.12,445.00 534.12,444.75
             534.12,444.50 550.00,447.12 550.00,447.50
             550.00,447.88 564.88,450.00 565.12,450.00
             565.38,450.00 570.00,448.38 570.00,448.12
             570.00,447.88 571.00,443.62 571.00,443.62
             571.00,443.62 571.38,435.50 571.38,435.50
             571.38,435.50 570.20,433.24 570.20,433.24
             570.20,433.24 566.71,433.18 566.69,433.22
             566.67,433.27 505.47,433.69 505.47,433.69
             505.47,433.69 502.91,435.25 502.91,435.25M 526.00,64.82
           C 526.09,64.73 532.55,63.82 533.00,63.45
             533.45,63.09 545.73,60.00 545.73,60.00
             545.73,60.00 554.55,56.45 554.55,56.27
             554.55,56.09 565.55,52.45 565.73,52.45
             565.91,52.45 580.00,50.00 580.00,50.00
             580.00,50.00 592.91,50.00 592.91,50.00
             592.91,50.00 617.09,50.00 617.00,50.00
             616.91,50.00 620.82,51.91 621.36,52.00
             621.91,52.09 646.55,57.18 646.55,57.18
             646.55,57.18 660.00,61.91 660.00,61.82
             660.00,61.73 676.55,71.36 676.55,71.36
             676.55,71.36 681.09,76.64 680.91,76.45
             680.73,76.27 680.00,76.73 680.00,77.09
             680.00,77.45 674.17,76.88 674.17,76.88
             674.17,76.88 671.29,75.42 671.33,75.45
             671.37,75.47 658.59,72.78 658.62,72.77
             658.64,72.75 641.81,67.62 641.97,67.56
             642.12,67.50 625.06,62.19 625.00,62.25
             624.94,62.31 608.06,59.19 608.12,59.19
             608.19,59.19 600.00,58.12 600.00,58.06
             600.00,58.00 582.67,56.92 582.66,56.92
             582.64,56.92 570.48,56.09 570.48,56.09
             570.48,56.09 566.30,57.38 566.30,57.38
             566.30,57.38 562.56,58.77 562.55,58.77
             562.53,58.77 551.30,62.91 551.39,62.83
             551.48,62.74 544.38,65.31 544.38,65.25
             544.38,65.19 535.75,67.47 535.75,67.44
             535.75,67.41 528.66,68.28 528.59,68.25
             528.53,68.22 524.28,66.34 524.34,66.47
             524.41,66.59 525.03,64.81 525.06,64.91M 574.09,434.00
           C 574.09,434.00 573.55,437.64 573.55,437.64
             573.55,437.64 572.45,443.45 572.55,443.45
             572.64,443.45 572.91,446.09 572.91,446.09
             572.91,446.09 575.36,447.82 575.36,447.73
             575.36,447.64 580.00,449.18 580.00,449.18
             580.00,449.18 585.18,450.45 585.45,450.73
             585.73,451.00 590.00,453.27 590.00,453.36
             590.00,453.45 594.27,455.27 594.45,455.45
             594.64,455.64 598.55,458.36 599.27,459.18
             600.00,460.00 604.73,463.45 604.73,463.45
             604.73,463.45 611.09,472.91 610.91,472.73
             610.73,472.55 615.73,480.00 615.64,480.00
             615.55,480.00 618.64,483.73 618.64,484.00
             618.64,484.27 620.00,484.82 620.00,484.82
             620.00,484.82 621.91,484.82 621.91,484.82
             621.91,484.82 623.09,484.27 623.09,484.27
             623.09,484.27 625.18,482.18 625.18,482.00
             625.18,481.82 625.36,480.00 625.36,480.00
             625.36,480.00 617.36,461.53 617.36,461.51
             617.36,461.49 614.64,455.12 614.64,455.16
             614.64,455.19 611.69,447.22 611.69,447.22
             611.69,447.22 605.81,439.67 605.81,439.67
             605.81,439.67 600.58,436.39 600.58,436.39
             600.58,436.39 592.38,434.09 592.38,434.09
             592.38,434.09 585.87,433.22 585.84,433.22
             585.82,433.22 574.64,433.33 574.64,433.36" />
</svg>
